<svg xmlns="http://www.w3.org/2000/svg" viewBox="0 0 512 512"><path fill="#fff" d="M128 159.234H16A15.975 15.975 0 00.64 170.786c-1.984 6.88.8 14.208 6.848 17.984.128.096 11.072 7.232 19.552 20.224C9.536 231.234 0 258.562 0 287.234c0 70.592 57.408 128 128 128s128-57.408 128-128-57.408-128-128-128zm0 224c-52.928 0-96-43.072-96-96 0-24.384 9.248-47.52 25.984-65.12a15.974 15.974 0 003.008-17.632 94.747 94.747 0 00-7.328-13.248H128c52.928 0 96 43.072 96 96s-43.072 96-96 96z"/><path fill="#fff" d="M301.536 338.306c-7.136-5.152-17.12-3.68-22.368 3.552l-22.336 30.784-24.352-31.232c-5.44-6.976-15.52-8.256-22.464-2.784-6.944 5.44-8.192 15.488-2.752 22.464l37.44 48a16.03 16.03 0 0012.608 6.144h.288c5.024-.096 9.728-2.528 12.64-6.592l34.816-48c5.184-7.136 3.648-17.152-3.52-22.336zm125.248-174.88c-97.344-88.864-244.224-88.896-341.568 0-6.528 5.952-7.008 16.064-1.024 22.592 5.952 6.56 16.064 6.976 22.592 1.024 85.088-77.664 213.376-77.664 298.432 0A15.91 15.91 0 00416 191.234c4.352 0 8.672-1.76 11.808-5.216 5.984-6.528 5.504-16.64-1.024-22.592zM128 223.234c-35.296 0-64 28.704-64 64s28.704 64 64 64 64-28.704 64-64-28.704-64-64-64zm0 96c-17.632 0-32-14.336-32-32 0-17.632 14.368-32 32-32s32 14.368 32 32c0 17.664-14.368 32-32 32z"/><path fill="#fff" d="M128.64 271.234h-.32c-8.832 0-15.84 7.168-15.84 16s7.328 16 16.16 16 16-7.168 16-16-7.168-16-16-16zm356.288-62.24c8.48-12.96 19.488-20.192 19.584-20.224a15.984 15.984 0 006.848-17.984c-1.952-6.848-8.224-11.552-15.36-11.552H384c-70.592 0-128 57.408-128 128s57.408 128 128 128 128-57.408 128-128c0-28.64-9.536-56-27.072-78.24zM384 383.234c-52.928 0-96-43.072-96-96s43.072-96 96-96h74.336a94.747 94.747 0 00-7.328 13.248c-2.656 5.952-1.504 12.928 3.008 17.632C470.784 239.746 480 262.85 480 287.234c0 52.928-43.072 96-96 96z"/><path fill="#fff" d="M384 223.234c-35.296 0-64 28.704-64 64s28.704 64 64 64 64-28.704 64-64-28.704-64-64-64zm0 96c-17.664 0-32-14.336-32-32 0-17.632 14.336-32 32-32s32 14.368 32 32c0 17.664-14.336 32-32 32z"/><path fill="#fff" d="M384.64 271.234h-.32c-8.832 0-15.84 7.168-15.84 16s7.36 16 16.16 16c8.832 0 16-7.168 16-16s-7.168-16-16-16z"/></svg>